<svg xmlns="http://www.w3.org/2000/svg" viewBox="0 0 769 252" width="769" height="252" role="img" aria-labelledby="t"><title id="t">سكن هب</title>
<path fill="#1D2433" d="M65.39519999999999 165.12Q50.9696 165.12 42.580799999999996 156.7312Q34.192 148.3424 34.192 133.60320000000002Q34.192 127.6448 35.6032 120.9808Q37.0144 114.3168 39.2096 109.61280000000001H59.907199999999996Q57.5552 119.648 57.5552 130.1536Q57.5552 137.3664 61.632 141.8352Q65.7088 146.304 72.2944 146.304H123.25439999999999V87.504H146.61759999999998V146.304H167.0016Q167.7856 146.304 167.7856 146.9312V164.336Q167.7856 165.12 167.0016 165.12ZM85.3088 204.1632Q80.44800000000001 204.1632 77.6256 201.10559999999998Q74.8032 198.048 74.8032 192.8736Q74.8032 187.6992 77.5472 184.64159999999998Q80.2912 181.584 85.3088 181.584Q90.1696 181.584 92.9136 184.5632Q95.6576 187.5424 95.6576 192.8736Q95.6576 198.048 92.8352 201.10559999999998Q90.0128 204.1632 85.3088 204.1632ZM184.72 146.304Q181.584 143.3248 179.3888 137.91520000000003Q177.1936 132.50560000000002 177.1936 124.352Q177.1936 114.78720000000001 182.21120000000002 106.94720000000001Q187.2288 99.1072 195.9312 94.48160000000001Q204.6336 89.85600000000001 215.6096 89.85600000000001Q230.50560000000002 89.85600000000001 239.5216 98.9504Q248.5376 108.04480000000001 248.5376 124.0384V146.304H270.3328V117.296Q270.3328 97.3824 260.5328 86.72Q250.7328 76.05760000000001 231.91680000000002 76.05760000000001Q220.1568 76.05760000000001 211.2192 77.46880000000002Q202.2816 78.88000000000001 193.8144 82.016L188.4832 64.14080000000001Q199.3024 60.3776 209.7296 58.8096Q220.1568 57.241600000000005 231.91680000000002 57.241600000000005Q262.8064 57.241600000000005 278.25120000000004 72.1376Q293.696 87.0336 293.696 115.2576V165.12H165.4336Q164.6496 165.12 164.6496 164.336V146.9312Q164.6496 146.304 165.4336 146.304ZM220.1568 146.304H225.1744V124.9792Q225.1744 116.82560000000001 222.2736 113.14080000000001Q219.3728 109.456 213.2576 109.456Q207.9264 109.456 204.5552 113.9248Q201.184 118.3936 201.184 125.2928Q201.184 146.304 220.1568 146.304ZM464.60799999999995 165.12Q461.7856 202.752 418.50879999999995 202.752H411.6096Q398.5952 202.752 388.87359999999995 197.264Q379.30879999999996 191.776 374.13439999999997 181.7408Q368.96 171.7056 368.96 158.848Q368.96 149.9104 371.07679999999993 140.7376Q373.19359999999995 131.5648 376.9568 124.1952H397.65439999999995Q395.14559999999994 132.50560000000002 393.73439999999994 141.7568Q392.3232 151.008 392.3232 159.00480000000002Q392.3232 170.4512 398.04639999999995 177.1936Q403.76959999999997 183.936 413.1776 183.936H417.8816Q429.9552 183.936 435.6784 177.42880000000002Q441.4016 170.9216 441.4016 159.00480000000002V87.504H464.7648V146.304H484.99199999999996Q485.77599999999995 146.304 485.77599999999995 146.9312V164.336Q485.77599999999995 165.12 484.99199999999996 165.12ZM413.1775999999999 85.6224Q408.31679999999994 85.6224 405.4943999999999 82.56479999999999Q402.67199999999997 79.5072 402.67199999999997 74.33279999999999Q402.67199999999997 69.0016 405.41599999999994 66.0224Q408.15999999999997 63.0432 413.1775999999999 63.0432Q418.03839999999997 63.0432 420.78239999999994 66.0224Q423.52639999999997 69.0016 423.52639999999997 74.33279999999999Q423.52639999999997 79.5072 420.70399999999995 82.56479999999999Q417.88159999999993 85.6224 413.1775999999999 85.6224ZM483.424 165.12Q482.64 165.12 482.64 164.336V146.9312Q482.64 146.304 483.424 146.304H544.7328V121.0592Q544.7328 111.6512 538.2256 106.55520000000001Q531.7184 101.45920000000001 519.8016 101.45920000000001H493.14559999999994V84.52480000000001Q495.8112 78.7232 499.3392 73.39200000000001Q502.86719999999997 68.06080000000001 507.1008 63.2Q515.7248 53.321600000000004 527.0144 45.638400000000004Q538.304 37.955200000000005 551.632 33.09440000000001L560.256 54.10560000000001Q551.1615999999999 56.77120000000001 542.7728 61.396800000000006Q534.384 66.0224 527.7984 71.5104Q521.2128 76.9984 517.4495999999999 82.64320000000001H523.408Q568.096 82.64320000000001 568.096 118.08000000000001V146.304H588.48Q589.264 146.304 589.264 146.9312V164.336Q589.264 165.12 588.48 165.12ZM699.1808 165.12Q685.8528 165.12 674.5632 153.36Q665.9392 165.12 648.3776 165.12H586.912Q586.128 165.12 586.128 164.336V146.9312Q586.128 146.304 586.912 146.304H606.5120000000001V99.73440000000001H629.8752000000001V146.304H643.2032Q651.0432000000001 146.304 654.6496000000001 141.99200000000002Q658.2560000000001 137.68 658.2560000000001 128.11520000000002V99.73440000000001H681.6192V129.9968Q681.6192 133.76 681.1488 137.0528Q685.0688 142.2272 688.832 144.2656Q692.5952 146.304 698.7104 146.304H708.432V87.504H731.7952V165.12Z"/>
</svg>
